# xmcd
#
# Track frame offsets:
#	150
#	19417
#	35317
#	55538
#	83958
#	101514
#	122455
#	146483
#	166281
#	185871
#	201518
#
# Disc length: 2998 seconds
#
# Revision: 0
# Processed by: cddbd v1.5.2PL0 Copyright (c) Steve Scherf et al.
# Submitted via: dBpowerAMP V4.0
#
DISCID=940bb40b
DTITLE=Lionel Rault - The further Adventures Of..
DYEAR=2007
DGENRE=blues 
TTITLE0=Blacktop Highway
TTITLE1=Rockaday Johnny
TTITLE2=Sad Eyes
TTITLE3=Cathy's clown
TTITLE4=Living on the edge
TTITLE5=The Two-Nineteen
TTITLE6=The Key to the Highway
TTITLE7=Leavin' Calgary
TTITLE8=No tell Hotell
TTITLE9=Nothin' to lose
TTITLE10=First love of mine
EXTD=
EXTT0=
EXTT1=
EXTT2=
EXTT3=
EXTT4=
EXTT5=
EXTT6=
EXTT7=
EXTT8=
EXTT9=
EXTT10=
PLAYORDER=
